<?xml version="1.0" standalone="no"?>
<!DOCTYPE svg PUBLIC "-//W3C//DTD SVG 20010904//EN" "http://www.w3.org/TR/2001/REC-SVG-20010904/DTD/svg10.dtd">
<svg version="1.0" xmlns="http://www.w3.org/2000/svg" width="1px" height="1px" viewBox="0 0 225.000000 225.000000" preserveAspectRatio="xMidYMid meet">

    <g transform="translate(0.000000,225.000000) scale(0.100000,-0.100000)" fill="#fff" stroke="none">
        <path d="M165 1758 c-3 -7 -4 -287 -3 -623 l3 -610 949 -3 c696 -1 952 1 962
9 12 10 14 116 12 623 l-3 611 -958 3 c-761 2 -959 0 -962 -10z m1790 -58
c-14 -22 -828 -761 -836 -758 -4 2 -177 158 -385 348 -208 190 -396 362 -418
382 l-41 37 843 1 c563 0 841 -3 837 -10z m-1441 -299 c153 -139 276 -254 274
-255 -2 -2 -120 -110 -263 -241 -143 -131 -270 -248 -282 -259 l-23 -19 0 517
c0 294 4 516 9 514 5 -1 133 -117 285 -257z m1504 -509 l-3 -260 -276 252
c-151 138 -277 254 -280 258 -2 5 122 123 276 263 l280 256 3 -255 c1 -140 1
-371 0 -514z m-1043 88 c72 -66 138 -119 147 -120 9 0 76 54 148 121 l132 121
27 -25 c14 -13 139 -127 276 -252 138 -124 252 -231 253 -236 2 -5 -332 -9
-837 -9 -463 0 -841 2 -841 5 0 6 553 515 560 515 3 0 64 -54 135 -120z" />
    </g>
</svg>
