<svg xmlns="http://www.w3.org/2000/svg" viewBox="0 0 2561 1081.5"><defs><style>.a{fill:#222;}.b{fill:#fff;}.c{fill:#8c8c8c;}.d{fill:none;stroke:#fff;stroke-miterlimit:10;stroke-width:5px;}.e{fill:#9b3ba6;}.f{fill:#cc8f8f;}.g{fill:#9b9deb;}.h{fill:#b777f2;}.i{fill:#a3cccc;}.j{fill:#e69191;}.k{opacity:0.59;}</style></defs><rect class="a" x="0.5" y="1.5" width="2560" height="1080"/><path class="b" d="M171.08,5l55.1,95.44-55.1,95.44H60.87L5.77,100.44,60.87,5H171.08M174,0H58L0,100.44,58,200.88H174l58-100.44L174,0Z" transform="translate(0.5 0.5)"/><path class="b" d="M391.6,4.89l-51,88.38-1.25,2.17H229.13L176.85,4.89H391.6m8.54-5H168.31l-.06.11,57.8,100.11.19.33h116l2.69-4.67L400.2,0l-.06-.11Z" transform="translate(0.5 0.5)"/><path class="b" d="M507.09,5l55.1,95.44-55.1,95.44H396.89l-55.11-95.44L396.89,5h110.2M510,0H394L336,100.44l58,100.44H510l58-100.44L510,0Z" transform="translate(0.5 0.5)"/><path class="b" d="M727.61,4.89l-51,88.38-1.25,2.17H565.14L512.86,4.89H727.61m8.54-5H504.32l-.06.11,57.8,100.11.19.33h116l2.69-4.67L736.21,0l-.06-.11Z" transform="translate(0.5 0.5)"/><path class="b" d="M507.09,5l55.1,95.44-55.1,95.44H396.89l-55.11-95.44L396.89,5h110.2M510,0H394L336,100.44l58,100.44H510l58-100.44L510,0Z" transform="translate(0.5 0.5)"/><path class="b" d="M727.61,4.89l-51,88.38-1.25,2.17H565.14L512.86,4.89H727.61m8.54-5H504.32l-.06.11,57.8,100.11.19.33h116l2.69-4.67L736.21,0l-.06-.11Z" transform="translate(0.5 0.5)"/><path class="b" d="M507.09,5l55.1,95.44-55.1,95.44H396.89l-55.11-95.44L396.89,5h110.2M510,0H394L336,100.44l58,100.44H510l58-100.44L510,0Z" transform="translate(0.5 0.5)"/><path class="b" d="M727.61,4.89l-51,88.38-1.25,2.17H565.14L512.86,4.89H727.61m8.54-5H504.32l-.06.11,57.8,100.11.19.33h116l2.69-4.67L736.21,0l-.06-.11Z" transform="translate(0.5 0.5)"/><path class="b" d="M842.87,5,898,100.44l-55.1,95.44H732.66l-55.1-95.44L732.66,5H842.87m2.88-5h-116l-58,100.44,58,100.44h116l58-100.44L845.75,0Z" transform="translate(0.5 0.5)"/><path class="b" d="M1063.39,4.89l-51,88.38-1.25,2.17H900.92L848.64,4.89h214.75m8.54-5H840.1L840,0l57.8,100.11.19.33h116l2.69-4.67L1072,0l-.06-.11Z" transform="translate(0.5 0.5)"/><path class="b" d="M842.87,5,898,100.44l-55.1,95.44H732.66l-55.1-95.44L732.66,5H842.87m2.88-5h-116l-58,100.44,58,100.44h116l58-100.44L845.75,0Z" transform="translate(0.5 0.5)"/><path class="b" d="M1063.39,4.89l-51,88.38-1.25,2.17H900.92L848.64,4.89h214.75m8.54-5H840.1L840,0l57.8,100.11.19.33h116l2.69-4.67L1072,0l-.06-.11Z" transform="translate(0.5 0.5)"/><path class="b" d="M842.87,5,898,100.44l-55.1,95.44H732.66l-55.1-95.44L732.66,5H842.87m2.88-5h-116l-58,100.44,58,100.44h116l58-100.44L845.75,0Z" transform="translate(0.5 0.5)"/><path class="b" d="M1063.39,4.89l-51,88.38-1.25,2.17H900.92L848.64,4.89h214.75m8.54-5H840.1L840,0l57.8,100.11.19.33h116l2.69-4.67L1072,0l-.06-.11Z" transform="translate(0.5 0.5)"/><path class="b" d="M1179.25,4.89l53.66,92.94,1.45,2.5L1180.5,193.6l-1.25,2.17H1069.06L1014,100.33l1.38-2.39,53.73-93h110.19m2.89-5h-116l-.06.11L1011,95.44l-2.82,4.89.06.11,57.74,100,.19.34h116l2.69-4.67,55.3-95.77-2.89-5L1182.2,0l-.06-.11Z" transform="translate(0.5 0.5)"/><path class="b" d="M1399.72,4.89l-51,88.27-1.25,2.17H1237.31L1185.09,4.89h214.63m8.66-5h-232l.06.11,57.74,100,.19.33h116l2.69-4.67L1408.32,0l.06-.11Z" transform="translate(0.5 0.5)"/><path class="b" d="M1179.25,4.89l53.66,92.94,1.45,2.5L1180.5,193.6l-1.25,2.17H1069.06L1014,100.33l1.38-2.39,53.73-93h110.19m2.89-5h-116l-.06.11L1011,95.44l-2.82,4.89.06.11,57.74,100,.19.34h116l2.69-4.67,55.3-95.77-2.89-5L1182.2,0l-.06-.11Z" transform="translate(0.5 0.5)"/><path class="b" d="M1399.72,4.89l-51,88.27-1.25,2.17H1237.31L1185.09,4.89h214.63m8.66-5h-232l.06.11,57.74,100,.19.33h116l2.69-4.67L1408.32,0l.06-.11Z" transform="translate(0.5 0.5)"/><path class="b" d="M1179.25,4.89l53.66,92.94,1.45,2.5L1180.5,193.6l-1.25,2.17H1069.06L1014,100.33l1.38-2.39,53.73-93h110.19m2.89-5h-116l-.06.11L1011,95.44l-2.82,4.89.06.11,57.74,100,.19.34h116l2.69-4.67,55.3-95.77-2.89-5L1182.2,0l-.06-.11Z" transform="translate(0.5 0.5)"/><path class="b" d="M1399.72,4.89l-51,88.27-1.25,2.17H1237.31L1185.09,4.89h214.63m8.66-5h-232l.06.11,57.74,100,.19.33h116l2.69-4.67L1408.32,0l.06-.11Z" transform="translate(0.5 0.5)"/><path class="b" d="M1516.62,4.89l53.65,92.94,1.45,2.5-53.85,93.27-1.25,2.17h-110.2l-55.11-95.44,1.45-2.5,53.66-92.94h110.2m2.89-5h-116l-.06.11-55,95.33-2.89,5,57.8,100.1.19.34h116l2.69-4.67,55.29-95.77-2.89-5L1519.57,0l-.06-.11Z" transform="translate(0.5 0.5)"/><path class="b" d="M1737.08,4.89l-51,88.27-1.25,2.17h-110.2L1522.45,4.89h214.63m8.66-5h-232l.06.11,57.74,100,.19.33h116l2.69-4.67L1745.68,0l.06-.11Z" transform="translate(0.5 0.5)"/><path class="b" d="M1516.62,4.89l53.65,92.94,1.45,2.5-53.85,93.27-1.25,2.17h-110.2l-55.11-95.44,1.45-2.5,53.66-92.94h110.2m2.89-5h-116l-.06.11-55,95.33-2.89,5,57.8,100.1.19.34h116l2.69-4.67,55.29-95.77-2.89-5L1519.57,0l-.06-.11Z" transform="translate(0.5 0.5)"/><path class="b" d="M1737.08,4.89l-51,88.27-1.25,2.17h-110.2L1522.45,4.89h214.63m8.66-5h-232l.06.11,57.74,100,.19.33h116l2.69-4.67L1745.68,0l.06-.11Z" transform="translate(0.5 0.5)"/><path class="b" d="M1516.62,4.89l53.65,92.94,1.45,2.5-53.85,93.27-1.25,2.17h-110.2l-55.11-95.44,1.45-2.5,53.66-92.94h110.2m2.89-5h-116l-.06.11-55,95.33-2.89,5,57.8,100.1.19.34h116l2.69-4.67,55.29-95.77-2.89-5L1519.57,0l-.06-.11Z" transform="translate(0.5 0.5)"/><path class="b" d="M1737.08,4.89l-51,88.27-1.25,2.17h-110.2L1522.45,4.89h214.63m8.66-5h-232l.06.11,57.74,100,.19.33h116l2.69-4.67L1745.68,0l.06-.11Z" transform="translate(0.5 0.5)"/><path class="b" d="M1853.1,5l55.1,95.44-55.1,95.44H1742.89l-55.1-95.44L1742.89,5H1853.1M1856,0H1740l-58,100.44,58,100.44h116l58-100.44L1856,0Z" transform="translate(0.5 0.5)"/><path class="b" d="M2073.25,4.89l-51,88.27L2021,95.33h-110.2L1858.62,4.89h214.63m8.66-5H1850L1850,0l57.73,100,.19.33h116l2.69-4.67L2081.85,0l.06-.11Z" transform="translate(0.5 0.5)"/><path class="b" d="M2188.78,5l55.1,95.44-55.1,95.44H2078.57l-55.1-95.44L2078.57,5h110.21m2.88-5h-116l-58,100.44,58,100.44h116l58-100.44L2191.66,0Z" transform="translate(0.5 0.5)"/><polygon class="a" points="2246.12 98.33 2191.02 2.89 2414.31 2.89 2361.18 94.91 2359.2 98.33 2246.12 98.33"/><path class="b" d="M2409.48,4.89l-51,88.27-1.25,2.17H2247.07L2194.85,4.89h214.63m8.66-5H2186.19l.06.11L2244,100l.19.33h116l2.69-4.67L2418.08,0l.06-.11Z" transform="translate(0.5 0.5)"/><polygon class="a" points="2414.27 198.77 2357.72 100.83 2414.27 2.89 2527.34 2.89 2558 55.98 2558 145.68 2529.32 195.35 2527.34 198.77 2414.27 198.77"/><path class="b" d="M2525.4,4.89,2555,56.15v88.36l-28.35,49.09-1.25,2.17H2415.21l-55.11-95.44,1.45-2.5,53.66-92.94H2525.4m2.89-5h-116l-.06.11-55,95.33-2.89,5,57.8,100.1.19.34h116l2.69-4.67,29-50.25v-91L2528.35,0l-.06-.11Z" transform="translate(0.5 0.5)"/><path class="b" d="M173.58,200.88l55.1,95.43-55.1,95.44H63.37L8.27,296.31l55.1-95.43H173.58m2.88-5h-116L2.5,296.31l58,100.44h116l58-100.44-58-100.43Z" transform="translate(0.5 0.5)"/><path class="b" d="M341.83,100.44l55.1,95.44-55.1,95.43H231.62l-55.1-95.43,55.1-95.44H341.83m2.88-5h-116l-58,100.44,58,100.43h116l58-100.43-58-100.44Z" transform="translate(0.5 0.5)"/><path class="b" d="M509.59,200.88l55.1,95.43-55.1,95.44H399.39l-55.11-95.44,55.11-95.43h110.2m2.88-5h-116l-58,100.43,58,100.44h116l58-100.44-58-100.43Z" transform="translate(0.5 0.5)"/><path class="b" d="M677.84,100.44l55.1,95.44-55.1,95.43H567.63l-55.1-95.43,55.1-95.44H677.84m2.88-5h-116l-58,100.44,58,100.43h116l58-100.43-58-100.44Z" transform="translate(0.5 0.5)"/><path class="b" d="M509.59,200.88l55.1,95.43-55.1,95.44H399.39l-55.11-95.44,55.11-95.43h110.2m2.88-5h-116l-58,100.43,58,100.44h116l58-100.44-58-100.43Z" transform="translate(0.5 0.5)"/><path class="b" d="M677.84,100.44l55.1,95.44-55.1,95.43H567.63l-55.1-95.43,55.1-95.44H677.84m2.88-5h-116l-58,100.44,58,100.43h116l58-100.43-58-100.44Z" transform="translate(0.5 0.5)"/><path class="b" d="M509.59,200.88l55.1,95.43-55.1,95.44H399.39l-55.11-95.44,55.11-95.43h110.2m2.88-5h-116l-58,100.43,58,100.44h116l58-100.44-58-100.43Z" transform="translate(0.5 0.5)"/><path class="b" d="M677.84,100.44l55.1,95.44-55.1,95.43H567.63l-55.1-95.43,55.1-95.44H677.84m2.88-5h-116l-58,100.44,58,100.43h116l58-100.43-58-100.44Z" transform="translate(0.5 0.5)"/><path class="b" d="M845.37,200.88l55.1,95.43-55.1,95.44H735.16l-55.1-95.44,55.1-95.43H845.37m2.88-5h-116l-58,100.43,58,100.44h116l58-100.44-58-100.43Z" transform="translate(0.5 0.5)"/><path class="b" d="M1013.61,100.44l55.11,95.44-55.11,95.43H903.41l-55.1-95.43,55.1-95.44h110.2m2.89-5h-116l-58,100.44,58,100.43h116l58-100.43-58-100.44Z" transform="translate(0.5 0.5)"/><path class="b" d="M845.37,200.88l55.1,95.43-55.1,95.44H735.16l-55.1-95.44,55.1-95.43H845.37m2.88-5h-116l-58,100.43,58,100.44h116l58-100.44-58-100.43Z" transform="translate(0.5 0.5)"/><path class="b" d="M1013.61,100.44l55.11,95.44-55.11,95.43H903.41l-55.1-95.43,55.1-95.44h110.2m2.89-5h-116l-58,100.44,58,100.43h116l58-100.43-58-100.44Z" transform="translate(0.5 0.5)"/><polygon class="a" points="734.22 394.75 677.67 296.81 734.22 198.88 847.31 198.88 903.85 296.81 847.31 394.75 734.22 394.75"/><path class="b" d="M845.37,200.88l55.1,95.43-55.1,95.44H735.16l-55.1-95.44,55.1-95.43H845.37m2.88-5h-116l-58,100.43,58,100.44h116l58-100.44-58-100.43Z" transform="translate(0.5 0.5)"/><path class="b" d="M1013.61,100.44l55.11,95.44-55.11,95.43H903.41l-55.1-95.43,55.1-95.44h110.2m2.89-5h-116l-58,100.44,58,100.43h116l58-100.43-58-100.44Z" transform="translate(0.5 0.5)"/><path class="b" d="M1181.76,200.77l55.1,95.43-55.1,95.44H1071.55l-55.1-95.44,55.1-95.43h110.21m2.88-5h-116l-58,100.43,58,100.44h116l58-100.44-58-100.43Z" transform="translate(0.5 0.5)"/><path class="b" d="M1350,100.33l55.11,95.44L1350,291.2H1239.8l-55.1-95.43,55.1-95.44H1350m2.89-5h-116l-58,100.44,58,100.43h116l58-100.43-58-100.44Z" transform="translate(0.5 0.5)"/><path class="b" d="M1181.76,200.77l55.1,95.43-55.1,95.44H1071.55l-55.1-95.44,55.1-95.43h110.21m2.88-5h-116l-58,100.43,58,100.44h116l58-100.44-58-100.43Z" transform="translate(0.5 0.5)"/><path class="b" d="M1350,100.33l55.11,95.44L1350,291.2H1239.8l-55.1-95.43,55.1-95.44H1350m2.89-5h-116l-58,100.44,58,100.43h116l58-100.43-58-100.44Z" transform="translate(0.5 0.5)"/><path class="b" d="M1181.76,200.77l55.1,95.43-55.1,95.44H1071.55l-55.1-95.44,55.1-95.43h110.21m2.88-5h-116l-58,100.43,58,100.44h116l58-100.44-58-100.43Z" transform="translate(0.5 0.5)"/><path class="b" d="M1350,100.33l55.11,95.44L1350,291.2H1239.8l-55.1-95.43,55.1-95.44H1350m2.89-5h-116l-58,100.44,58,100.43h116l58-100.43-58-100.44Z" transform="translate(0.5 0.5)"/><path class="b" d="M1519.12,200.77l55.1,95.43-55.1,95.44h-110.2l-55.1-95.44,55.1-95.43h110.2m2.89-5H1406L1348,296.2l58,100.44h116l58-100.44-58-100.43Z" transform="translate(0.5 0.5)"/><path class="b" d="M1687.37,100.33l55.1,95.44-55.1,95.43h-110.2l-55.1-95.43,55.1-95.44h110.2m2.89-5h-116l-58,100.44,58,100.43h116l58-100.43-58-100.44Z" transform="translate(0.5 0.5)"/><path class="b" d="M1519.12,200.77l55.1,95.43-55.1,95.44h-110.2l-55.1-95.44,55.1-95.43h110.2m2.89-5H1406L1348,296.2l58,100.44h116l58-100.44-58-100.43Z" transform="translate(0.5 0.5)"/><path class="b" d="M1687.37,100.33l55.1,95.44-55.1,95.43h-110.2l-55.1-95.43,55.1-95.44h110.2m2.89-5h-116l-58,100.44,58,100.43h116l58-100.43-58-100.44Z" transform="translate(0.5 0.5)"/><path class="b" d="M1519.12,200.77l55.1,95.43-55.1,95.44h-110.2l-55.1-95.44,55.1-95.43h110.2m2.89-5H1406L1348,296.2l58,100.44h116l58-100.44-58-100.43Z" transform="translate(0.5 0.5)"/><path class="b" d="M1687.37,100.33l55.1,95.44-55.1,95.43h-110.2l-55.1-95.43,55.1-95.44h110.2m2.89-5h-116l-58,100.44,58,100.43h116l58-100.43-58-100.44Z" transform="translate(0.5 0.5)"/><path class="b" d="M1855.6,200.88l55.1,95.43-55.1,95.44H1745.39l-55.1-95.44,55.1-95.43H1855.6m2.88-5h-116l-58,100.43,58,100.44h116l58-100.44-58-100.43Z" transform="translate(0.5 0.5)"/><path class="b" d="M2023.53,100.33l55.1,95.44-55.1,95.43h-110.2l-55.1-95.43,55.1-95.44h110.2m2.89-5h-116l-58,100.44,58,100.43h116l58-100.43-58-100.44Z" transform="translate(0.5 0.5)"/><path class="b" d="M2191.28,200.88l55.1,95.43-55.1,95.44H2081.07L2026,296.31l55.1-95.43h110.21m2.88-5h-116l-58,100.43,58,100.44h116l58-100.44-58-100.43Z" transform="translate(0.5 0.5)"/><polygon class="a" points="2248.62 294.2 2192.08 196.26 2248.62 98.33 2361.71 98.33 2418.26 196.26 2361.71 294.2 2248.62 294.2"/><path class="b" d="M2359.77,100.33l55.1,95.44-55.1,95.43H2249.56l-55.1-95.43,55.1-95.44h110.21m2.88-5h-116l-58,100.44,58,100.43h116l58-100.43-58-100.44Z" transform="translate(0.5 0.5)"/><polygon class="c" points="2416.76 394.64 2360.22 296.7 2416.76 198.77 2529.85 198.77 2558 247.53 2558 345.88 2529.85 394.64 2416.76 394.64"/><path class="b" d="M2527.9,200.77,2555,247.7v97l-26,45-1.14,2H2417.71L2362.6,296.2l53.86-93.27,1.25-2.16H2527.9m2.89-5h-116l-2.69,4.66-55.3,95.77,57.68,99.9.31.54h116l2.58-4.47L2560,346.05V246.36l-29-50.26-.19-.33Z" transform="translate(0.5 0.5)"/><path class="b" d="M175.84,396.75l55.1,95.44-55.1,95.44H65.64l-55.1-95.44,55.1-95.44h110.2m2.89-5h-116l-58,100.44,58,100.44h116l58-100.44-58-100.44Z" transform="translate(0.5 0.5)"/><path class="b" d="M344.09,296.31l55.1,95.44-55.1,95.44H233.89l-55.1-95.44,55.1-95.44h110.2m2.89-5H231L173,391.75l58,100.44H347l58-100.44L347,291.31Z" transform="translate(0.5 0.5)"/><path class="b" d="M511.85,396.75,567,492.19l-55.1,95.44H401.65l-55.1-95.44,55.1-95.44h110.2m2.89-5h-116l-58,100.44,58,100.44h116l58-100.44-58-100.44Z" transform="translate(0.5 0.5)"/><path class="b" d="M680.1,296.31l55.1,95.44-55.1,95.44H569.9l-55.1-95.44,55.1-95.44H680.1m2.89-5H567L509,391.75l58,100.44H683l58-100.44L683,291.31Z" transform="translate(0.5 0.5)"/><path class="b" d="M511.85,396.75,567,492.19l-55.1,95.44H401.65l-55.1-95.44,55.1-95.44h110.2m2.89-5h-116l-58,100.44,58,100.44h116l58-100.44-58-100.44Z" transform="translate(0.5 0.5)"/><path class="b" d="M680.1,296.31l55.1,95.44-55.1,95.44H569.9l-55.1-95.44,55.1-95.44H680.1m2.89-5H567L509,391.75l58,100.44H683l58-100.44L683,291.31Z" transform="translate(0.5 0.5)"/><path class="b" d="M511.85,396.75,567,492.19l-55.1,95.44H401.65l-55.1-95.44,55.1-95.44h110.2m2.89-5h-116l-58,100.44,58,100.44h116l58-100.44-58-100.44Z" transform="translate(0.5 0.5)"/><polygon class="a" points="568.95 490.19 512.41 392.25 568.95 294.31 682.04 294.31 738.59 392.25 682.04 490.19 568.95 490.19"/><path class="b" d="M680.1,296.31l55.1,95.44-55.1,95.44H569.9l-55.1-95.44,55.1-95.44H680.1m2.89-5H567L509,391.75l58,100.44H683l58-100.44L683,291.31Z" transform="translate(0.5 0.5)"/><path class="b" d="M847.63,396.75l55.1,95.44-55.1,95.44H737.43l-55.11-95.44,55.11-95.44h110.2m2.89-5h-116l-58,100.44,58,100.44h116l58-100.44-58-100.44Z" transform="translate(0.5 0.5)"/><path class="b" d="M1015.88,296.31l55.1,95.44-55.1,95.44H905.68l-55.11-95.44,55.11-95.44h110.2m2.88-5h-116l-58,100.44,58,100.44h116l58-100.44-58-100.44Z" transform="translate(0.5 0.5)"/><path class="b" d="M847.63,396.75l55.1,95.44-55.1,95.44H737.43l-55.11-95.44,55.11-95.44h110.2m2.89-5h-116l-58,100.44,58,100.44h116l58-100.44-58-100.44Z" transform="translate(0.5 0.5)"/><path class="b" d="M1015.88,296.31l55.1,95.44-55.1,95.44H905.68l-55.11-95.44,55.11-95.44h110.2m2.88-5h-116l-58,100.44,58,100.44h116l58-100.44-58-100.44Z" transform="translate(0.5 0.5)"/><polygon class="c" points="736.48 590.63 679.94 492.69 736.48 394.75 849.57 394.75 906.12 492.69 849.57 590.63 736.48 590.63"/><path class="b" d="M847.63,396.75l55.1,95.44-55.1,95.44H737.43l-55.11-95.44,55.11-95.44h110.2m2.89-5h-116l-58,100.44,58,100.44h116l58-100.44-58-100.44Z" transform="translate(0.5 0.5)"/><polygon class="a" points="904.73 490.19 848.19 392.25 904.73 294.31 1017.82 294.31 1074.37 392.25 1017.82 490.19 904.73 490.19"/><path class="b" d="M1015.88,296.31l55.1,95.44-55.1,95.44H905.68l-55.11-95.44,55.11-95.44h110.2m2.88-5h-116l-58,100.44,58,100.44h116l58-100.44-58-100.44Z" transform="translate(0.5 0.5)"/><path class="b" d="M1184,396.64l55.1,95.44L1184,587.52h-110.2l-55.11-95.44,55.11-95.44H1184m2.88-5h-116l-58,100.44,58,100.44h116l58-100.44-58-100.44Z" transform="translate(0.5 0.5)"/><path class="b" d="M1352.27,296.2l55.1,95.44-55.1,95.44H1242.06L1187,391.64l55.1-95.44h110.21m2.88-5h-116l-58,100.44,58,100.44h116l58-100.44-58-100.44Z" transform="translate(0.5 0.5)"/><path class="b" d="M1184,396.64l55.1,95.44L1184,587.52h-110.2l-55.11-95.44,55.11-95.44H1184m2.88-5h-116l-58,100.44,58,100.44h116l58-100.44-58-100.44Z" transform="translate(0.5 0.5)"/><path class="b" d="M1352.27,296.2l55.1,95.44-55.1,95.44H1242.06L1187,391.64l55.1-95.44h110.21m2.88-5h-116l-58,100.44,58,100.44h116l58-100.44-58-100.44Z" transform="translate(0.5 0.5)"/><polygon class="c" points="1072.87 590.52 1016.33 492.58 1072.87 394.64 1185.96 394.64 1242.51 492.58 1185.96 590.52 1072.87 590.52"/><path class="b" d="M1184,396.64l55.1,95.44L1184,587.52h-110.2l-55.11-95.44,55.11-95.44H1184m2.88-5h-116l-58,100.44,58,100.44h116l58-100.44-58-100.44Z" transform="translate(0.5 0.5)"/><path class="b" d="M1352.27,296.2l55.1,95.44-55.1,95.44H1242.06L1187,391.64l55.1-95.44h110.21m2.88-5h-116l-58,100.44,58,100.44h116l58-100.44-58-100.44Z" transform="translate(0.5 0.5)"/><path class="b" d="M1521.38,396.64l55.1,95.44-55.1,95.44h-110.2l-55.1-95.44,55.1-95.44h110.2m2.89-5h-116l-58,100.44,58,100.44h116l58-100.44-58-100.44Z" transform="translate(0.5 0.5)"/><path class="b" d="M1689.63,296.2l55.1,95.44-55.1,95.44h-110.2l-55.1-95.44,55.1-95.44h110.2m2.89-5h-116l-58,100.44,58,100.44h116l58-100.44-58-100.44Z" transform="translate(0.5 0.5)"/><path class="b" d="M1521.38,396.64l55.1,95.44-55.1,95.44h-110.2l-55.1-95.44,55.1-95.44h110.2m2.89-5h-116l-58,100.44,58,100.44h116l58-100.44-58-100.44Z" transform="translate(0.5 0.5)"/><path class="b" d="M1689.63,296.2l55.1,95.44-55.1,95.44h-110.2l-55.1-95.44,55.1-95.44h110.2m2.89-5h-116l-58,100.44,58,100.44h116l58-100.44-58-100.44Z" transform="translate(0.5 0.5)"/><path class="b" d="M1521.38,396.64l55.1,95.44-55.1,95.44h-110.2l-55.1-95.44,55.1-95.44h110.2m2.89-5h-116l-58,100.44,58,100.44h116l58-100.44-58-100.44Z" transform="translate(0.5 0.5)"/><path class="b" d="M1689.63,296.2l55.1,95.44-55.1,95.44h-110.2l-55.1-95.44,55.1-95.44h110.2m2.89-5h-116l-58,100.44,58,100.44h116l58-100.44-58-100.44Z" transform="translate(0.5 0.5)"/><path class="b" d="M1857.86,396.75l55.1,95.44-55.1,95.44h-110.2l-55.1-95.44,55.1-95.44h110.2m2.89-5h-116l-58,100.44,58,100.44h116l58-100.44-58-100.44Z" transform="translate(0.5 0.5)"/><path class="b" d="M2025.8,296.2l55.1,95.44-55.1,95.44H1915.59l-55.1-95.44,55.1-95.44H2025.8m2.88-5h-116l-58,100.44,58,100.44h116l58-100.44-58-100.44Z" transform="translate(0.5 0.5)"/><path class="b" d="M2193.54,396.75l55.1,95.44-55.1,95.44h-110.2l-55.11-95.44,55.11-95.44h110.2m2.89-5h-116l-58,100.44,58,100.44h116l58-100.44-58-100.44Z" transform="translate(0.5 0.5)"/><polygon class="a" points="2419.02 590.52 2362.48 492.58 2417.18 397.85 2419.02 394.64 2532.12 394.64 2558 439.48 2558 545.68 2532.12 590.52 2419.02 590.52"/><path class="b" d="M2530.18,396.64l24.82,43V544.51l-23.89,41.39-.94,1.62H2420l-55.11-95.44,54-93.48,1.13-2h110.21m2.88-5h-116l-2.57,4.46-55.42,96,57.61,99.78.38.66h116l2.38-4.12L2560,545.85V438.31l-26.63-46.14-.31-.53Z" transform="translate(0.5 0.5)"/><polygon class="a" points="2250.88 490.08 2194.34 392.14 2250.88 294.2 2363.97 294.2 2420.52 392.14 2363.97 490.08 2250.88 490.08"/><path class="b" d="M2362,296.2l55.1,95.44L2362,487.08h-110.2l-55.1-95.44,55.1-95.44H2362m2.89-5h-116l-58,100.44,58,100.44h116l58-100.44-58-100.44Z" transform="translate(0.5 0.5)"/><path class="b" d="M177.84,592.85l55.1,95.44-55.1,95.44H67.64l-55.1-95.44,55.1-95.44h110.2m2.89-5h-116l-58,100.44,58,100.44h116l58-100.44-58-100.44Z" transform="translate(0.5 0.5)"/><path class="b" d="M346.09,492.41l55.1,95.44-55.1,95.44H235.89l-55.1-95.44,55.1-95.44h110.2m2.89-5H233L175,587.85l58,100.44H349l58-100.44L349,487.41Z" transform="translate(0.5 0.5)"/><path class="b" d="M513.85,592.85,569,688.29l-55.1,95.44H403.65l-55.1-95.44,55.1-95.44h110.2m2.89-5h-116l-58,100.44,58,100.44h116l58-100.44-58-100.44Z" transform="translate(0.5 0.5)"/><path class="b" d="M682.1,492.41l55.1,95.44-55.1,95.44H571.9l-55.1-95.44,55.1-95.44H682.1m2.89-5H569L511,587.85l58,100.44H685l58-100.44L685,487.41Z" transform="translate(0.5 0.5)"/><path class="b" d="M513.85,592.85,569,688.29l-55.1,95.44H403.65l-55.1-95.44,55.1-95.44h110.2m2.89-5h-116l-58,100.44,58,100.44h116l58-100.44-58-100.44Z" transform="translate(0.5 0.5)"/><path class="b" d="M682.1,492.41l55.1,95.44-55.1,95.44H571.9l-55.1-95.44,55.1-95.44H682.1m2.89-5H569L511,587.85l58,100.44H685l58-100.44L685,487.41Z" transform="translate(0.5 0.5)"/><path class="b" d="M513.85,592.85,569,688.29l-55.1,95.44H403.65l-55.1-95.44,55.1-95.44h110.2m2.89-5h-116l-58,100.44,58,100.44h116l58-100.44-58-100.44Z" transform="translate(0.5 0.5)"/><polygon class="a" points="570.95 686.29 514.41 588.35 570.95 490.41 684.04 490.41 740.59 588.35 684.04 686.29 570.95 686.29"/><path class="b" d="M682.1,492.41l55.1,95.44-55.1,95.44H571.9l-55.1-95.44,55.1-95.44H682.1m2.89-5H569L511,587.85l58,100.44H685l58-100.44L685,487.41Z" transform="translate(0.5 0.5)"/><path class="b" d="M849.63,592.85l55.1,95.44-55.1,95.44H739.43l-55.11-95.44,55.11-95.44h110.2m2.89-5h-116l-58,100.44,58,100.44h116l58-100.44-58-100.44Z" transform="translate(0.5 0.5)"/><path class="b" d="M1017.88,492.41l55.1,95.44-55.1,95.44H907.68l-55.11-95.44,55.11-95.44h110.2m2.88-5h-116l-58,100.44,58,100.44h116l58-100.44-58-100.44Z" transform="translate(0.5 0.5)"/><path class="b" d="M849.63,592.85l55.1,95.44-55.1,95.44H739.43l-55.11-95.44,55.11-95.44h110.2m2.89-5h-116l-58,100.44,58,100.44h116l58-100.44-58-100.44Z" transform="translate(0.5 0.5)"/><path class="b" d="M1017.88,492.41l55.1,95.44-55.1,95.44H907.68l-55.11-95.44,55.11-95.44h110.2m2.88-5h-116l-58,100.44,58,100.44h116l58-100.44-58-100.44Z" transform="translate(0.5 0.5)"/><polygon class="a" points="738.48 786.73 681.94 688.79 738.48 590.85 851.57 590.85 908.12 688.79 851.57 786.73 738.48 786.73"/><path class="b" d="M849.63,592.85l55.1,95.44-55.1,95.44H739.43l-55.11-95.44,55.11-95.44h110.2m2.89-5h-116l-58,100.44,58,100.44h116l58-100.44-58-100.44Z" transform="translate(0.5 0.5)"/><polygon class="c" points="906.73 686.29 850.19 588.35 906.73 490.41 1019.82 490.41 1076.37 588.35 1019.82 686.29 906.73 686.29"/><path class="b" d="M1017.88,492.41l55.1,95.44-55.1,95.44H907.68l-55.11-95.44,55.11-95.44h110.2m2.88-5h-116l-58,100.44,58,100.44h116l58-100.44-58-100.44Z" transform="translate(0.5 0.5)"/><path class="b" d="M1186,592.74l55.1,95.44L1186,783.62h-110.2l-55.11-95.44,55.11-95.44H1186m2.88-5h-116l-58,100.44,58,100.44h116l58-100.44-58-100.44Z" transform="translate(0.5 0.5)"/><path class="b" d="M1354.27,492.3l55.1,95.44-55.1,95.44H1244.06L1189,587.74l55.1-95.44h110.21m2.88-5h-116l-58,100.44,58,100.44h116l58-100.44-58-100.44Z" transform="translate(0.5 0.5)"/><path class="b" d="M1186,592.74l55.1,95.44L1186,783.62h-110.2l-55.11-95.44,55.11-95.44H1186m2.88-5h-116l-58,100.44,58,100.44h116l58-100.44-58-100.44Z" transform="translate(0.5 0.5)"/><path class="b" d="M1354.27,492.3l55.1,95.44-55.1,95.44H1244.06L1189,587.74l55.1-95.44h110.21m2.88-5h-116l-58,100.44,58,100.44h116l58-100.44-58-100.44Z" transform="translate(0.5 0.5)"/><polygon class="c" points="1074.87 786.62 1018.33 688.68 1074.87 590.74 1187.96 590.74 1244.51 688.68 1187.96 786.62 1074.87 786.62"/><path class="b" d="M1186,592.74l55.1,95.44L1186,783.62h-110.2l-55.11-95.44,55.11-95.44H1186m2.88-5h-116l-58,100.44,58,100.44h116l58-100.44-58-100.44Z" transform="translate(0.5 0.5)"/><path class="b" d="M1354.27,492.3l55.1,95.44-55.1,95.44H1244.06L1189,587.74l55.1-95.44h110.21m2.88-5h-116l-58,100.44,58,100.44h116l58-100.44-58-100.44Z" transform="translate(0.5 0.5)"/><path class="b" d="M1523.38,592.74l55.1,95.44-55.1,95.44h-110.2l-55.1-95.44,55.1-95.44h110.2m2.89-5h-116l-58,100.44,58,100.44h116l58-100.44-58-100.44Z" transform="translate(0.5 0.5)"/><path class="b" d="M1691.63,492.3l55.1,95.44-55.1,95.44h-110.2l-55.1-95.44,55.1-95.44h110.2m2.89-5h-116l-58,100.44,58,100.44h116l58-100.44-58-100.44Z" transform="translate(0.5 0.5)"/><path class="b" d="M1523.38,592.74l55.1,95.44-55.1,95.44h-110.2l-55.1-95.44,55.1-95.44h110.2m2.89-5h-116l-58,100.44,58,100.44h116l58-100.44-58-100.44Z" transform="translate(0.5 0.5)"/><path class="b" d="M1691.63,492.3l55.1,95.44-55.1,95.44h-110.2l-55.1-95.44,55.1-95.44h110.2m2.89-5h-116l-58,100.44,58,100.44h116l58-100.44-58-100.44Z" transform="translate(0.5 0.5)"/><path class="b" d="M1523.38,592.74l55.1,95.44-55.1,95.44h-110.2l-55.1-95.44,55.1-95.44h110.2m2.89-5h-116l-58,100.44,58,100.44h116l58-100.44-58-100.44Z" transform="translate(0.5 0.5)"/><path class="b" d="M1691.63,492.3l55.1,95.44-55.1,95.44h-110.2l-55.1-95.44,55.1-95.44h110.2m2.89-5h-116l-58,100.44,58,100.44h116l58-100.44-58-100.44Z" transform="translate(0.5 0.5)"/><path class="b" d="M1859.86,592.85l55.1,95.44-55.1,95.44h-110.2l-55.1-95.44,55.1-95.44h110.2m2.89-5h-116l-58,100.44,58,100.44h116l58-100.44-58-100.44Z" transform="translate(0.5 0.5)"/><path class="b" d="M2027.8,492.3l55.1,95.44-55.1,95.44H1917.59l-55.1-95.44,55.1-95.44H2027.8m2.88-5h-116l-58,100.44,58,100.44h116l58-100.44-58-100.44Z" transform="translate(0.5 0.5)"/><polygon class="c" points="2084.39 786.73 2027.85 688.79 2084.39 590.85 2197.48 590.85 2254.03 688.79 2197.48 786.73 2084.39 786.73"/><path class="b" d="M2195.54,592.85l55.1,95.44-55.1,95.44h-110.2l-55.11-95.44,55.11-95.44h110.2m2.89-5h-116l-58,100.44,58,100.44h116l58-100.44-58-100.44Z" transform="translate(0.5 0.5)"/><polygon class="c" points="2252.88 686.18 2196.34 588.24 2252.88 490.3 2365.97 490.3 2422.52 588.24 2365.97 686.18 2252.88 686.18"/><path class="b" d="M2364,492.3l55.1,95.44L2364,683.18h-110.2l-55.1-95.44,55.1-95.44H2364m2.89-5h-116l-58,100.44,58,100.44h116l58-100.44-58-100.44Z" transform="translate(0.5 0.5)"/><path class="b" d="M2532.17,592.74,2555,632.28v111.8l-22.66,39.25-.16.29H2422l-55.1-95.44L2421,594.36l.94-1.62h110.2m2.89-5h-116l-2.38,4.12-55.61,96.32,56.64,98.11,1.35,2.33h116l1.61-2.78L2560,745.42V630.94l-24.56-42.54-.38-.66Z" transform="translate(0.5 0.5)"/><path class="b" d="M178.1,788.62l55.1,95.43-55.1,95.44H67.9L12.8,884.05l55.1-95.43H178.1m2.89-5H65L7,884.05,65,984.49H181l58-100.44L181,783.62Z" transform="translate(0.5 0.5)"/><path class="b" d="M346.35,688.18l55.1,95.44-55.1,95.43H236.15l-55.1-95.43,55.1-95.44h110.2m2.89-5h-116l-58,100.44,58,100.43h116l58-100.43-58-100.44Z" transform="translate(0.5 0.5)"/><path class="b" d="M514.11,788.62l55.1,95.43-55.1,95.44H403.91l-55.1-95.44,55.1-95.43h110.2m2.89-5H401L343,884.05l58,100.44H517l58-100.44L517,783.62Z" transform="translate(0.5 0.5)"/><path class="b" d="M682.36,688.18l55.1,95.44-55.1,95.43H572.16l-55.1-95.43,55.1-95.44h110.2m2.89-5h-116l-58,100.44,58,100.43h116l58-100.43-58-100.44Z" transform="translate(0.5 0.5)"/><path class="b" d="M514.11,788.62l55.1,95.43-55.1,95.44H403.91l-55.1-95.44,55.1-95.43h110.2m2.89-5H401L343,884.05l58,100.44H517l58-100.44L517,783.62Z" transform="translate(0.5 0.5)"/><path class="b" d="M682.36,688.18l55.1,95.44-55.1,95.43H572.16l-55.1-95.43,55.1-95.44h110.2m2.89-5h-116l-58,100.44,58,100.43h116l58-100.43-58-100.44Z" transform="translate(0.5 0.5)"/><path class="b" d="M514.11,788.62l55.1,95.43-55.1,95.44H403.91l-55.1-95.44,55.1-95.43h110.2m2.89-5H401L343,884.05l58,100.44H517l58-100.44L517,783.62Z" transform="translate(0.5 0.5)"/><polygon class="c" points="571.22 882.05 514.67 784.12 571.22 686.18 684.31 686.18 740.85 784.12 684.31 882.05 571.22 882.05"/><path class="b" d="M682.36,688.18l55.1,95.44-55.1,95.43H572.16l-55.1-95.43,55.1-95.44h110.2m2.89-5h-116l-58,100.44,58,100.43h116l58-100.43-58-100.44Z" transform="translate(0.5 0.5)"/><path class="b" d="M849.89,788.62,905,884.05l-55.1,95.44H739.69l-55.1-95.44,55.1-95.43h110.2m2.89-5h-116l-58,100.43,58,100.44h116l58-100.44-58-100.43Z" transform="translate(0.5 0.5)"/><path class="b" d="M1018.14,688.18l55.1,95.44-55.1,95.43H907.94l-55.1-95.43,55.1-95.44h110.2m2.89-5h-116l-58,100.44,58,100.43h116l58-100.43-58-100.44Z" transform="translate(0.5 0.5)"/><path class="b" d="M849.89,788.62,905,884.05l-55.1,95.44H739.69l-55.1-95.44,55.1-95.43h110.2m2.89-5h-116l-58,100.43,58,100.44h116l58-100.44-58-100.43Z" transform="translate(0.5 0.5)"/><path class="b" d="M1018.14,688.18l55.1,95.44-55.1,95.43H907.94l-55.1-95.43,55.1-95.44h110.2m2.89-5h-116l-58,100.44,58,100.43h116l58-100.43-58-100.44Z" transform="translate(0.5 0.5)"/><polygon class="c" points="738.75 982.49 682.2 884.55 738.75 786.62 851.83 786.62 908.38 884.55 851.83 982.49 738.75 982.49"/><path class="b" d="M849.89,788.62,905,884.05l-55.1,95.44H739.69l-55.1-95.44,55.1-95.43h110.2m2.89-5h-116l-58,100.43,58,100.44h116l58-100.44-58-100.43Z" transform="translate(0.5 0.5)"/><polygon class="c" points="907 882.05 850.45 784.12 907 686.18 1020.08 686.18 1076.63 784.12 1020.08 882.05 907 882.05"/><path class="b" d="M1018.14,688.18l55.1,95.44-55.1,95.43H907.94l-55.1-95.43,55.1-95.44h110.2m2.89-5h-116l-58,100.44,58,100.43h116l58-100.43-58-100.44Z" transform="translate(0.5 0.5)"/><path class="b" d="M1186.28,788.51l55.1,95.43-55.1,95.44h-110.2L1021,883.94l55.1-95.43h110.2m2.89-5h-116l-58,100.43,58,100.44h116l58-100.44-58-100.43Z" transform="translate(0.5 0.5)"/><path class="b" d="M1354.53,688.07l55.1,95.44-55.1,95.43h-110.2l-55.1-95.43,55.1-95.44h110.2m2.89-5h-116l-58,100.44,58,100.43h116l58-100.43-58-100.44Z" transform="translate(0.5 0.5)"/><path class="b" d="M1186.28,788.51l55.1,95.43-55.1,95.44h-110.2L1021,883.94l55.1-95.43h110.2m2.89-5h-116l-58,100.43,58,100.44h116l58-100.44-58-100.43Z" transform="translate(0.5 0.5)"/><path class="b" d="M1354.53,688.07l55.1,95.44-55.1,95.43h-110.2l-55.1-95.43,55.1-95.44h110.2m2.89-5h-116l-58,100.44,58,100.43h116l58-100.43-58-100.44Z" transform="translate(0.5 0.5)"/><polygon class="c" points="1075.13 982.38 1018.59 884.44 1075.13 786.5 1188.22 786.5 1244.77 884.44 1188.22 982.38 1075.13 982.38"/><path class="b" d="M1186.28,788.51l55.1,95.43-55.1,95.44h-110.2L1021,883.94l55.1-95.43h110.2m2.89-5h-116l-58,100.43,58,100.44h116l58-100.44-58-100.43Z" transform="translate(0.5 0.5)"/><polygon class="c" points="1243.38 881.94 1186.84 784 1243.38 686.07 1356.47 686.07 1413.02 784 1356.47 881.94 1243.38 881.94"/><path class="b" d="M1354.53,688.07l55.1,95.44-55.1,95.43h-110.2l-55.1-95.43,55.1-95.44h110.2m2.89-5h-116l-58,100.44,58,100.43h116l58-100.43-58-100.44Z" transform="translate(0.5 0.5)"/><path class="b" d="M1523.64,788.51l55.11,95.43-55.11,95.44h-110.2l-55.1-95.44,55.1-95.43h110.2m2.89-5h-116l-58,100.43,58,100.44h116l58-100.44-58-100.43Z" transform="translate(0.5 0.5)"/><path class="b" d="M1691.89,688.07,1747,783.51l-55.11,95.43h-110.2l-55.1-95.43,55.1-95.44h110.2m2.89-5h-116l-58,100.44,58,100.43h116l58-100.43-58-100.44Z" transform="translate(0.5 0.5)"/><path class="b" d="M1523.64,788.51l55.11,95.43-55.11,95.44h-110.2l-55.1-95.44,55.1-95.43h110.2m2.89-5h-116l-58,100.43,58,100.44h116l58-100.44-58-100.43Z" transform="translate(0.5 0.5)"/><path class="b" d="M1691.89,688.07,1747,783.51l-55.11,95.43h-110.2l-55.1-95.43,55.1-95.44h110.2m2.89-5h-116l-58,100.44,58,100.43h116l58-100.43-58-100.44Z" transform="translate(0.5 0.5)"/><polygon class="a" points="1412.5 982.38 1355.95 884.44 1412.5 786.5 1525.59 786.5 1582.13 884.44 1525.59 982.38 1412.5 982.38"/><path class="b" d="M1523.64,788.51l55.11,95.43-55.11,95.44h-110.2l-55.1-95.44,55.1-95.43h110.2m2.89-5h-116l-58,100.43,58,100.44h116l58-100.44-58-100.43Z" transform="translate(0.5 0.5)"/><path class="b" d="M1691.89,688.07,1747,783.51l-55.11,95.43h-110.2l-55.1-95.43,55.1-95.44h110.2m2.89-5h-116l-58,100.44,58,100.43h116l58-100.43-58-100.44Z" transform="translate(0.5 0.5)"/><path class="b" d="M1860.12,788.62l55.1,95.43-55.1,95.44h-110.2l-55.1-95.44,55.1-95.43h110.2m2.89-5H1747l-58,100.43,58,100.44h116l58-100.44-58-100.43Z" transform="translate(0.5 0.5)"/><polygon class="c" points="1916.91 881.94 1860.37 784 1916.91 686.07 2030 686.07 2086.55 784 2030 881.94 1916.91 881.94"/><path class="b" d="M2028.06,688.07l55.1,95.44-55.1,95.43h-110.2l-55.11-95.43,55.11-95.44h110.2m2.88-5H1915l-58,100.44,58,100.43h116l58-100.43-58-100.44Z" transform="translate(0.5 0.5)"/><polygon class="c" points="2084.66 982.49 2028.11 884.55 2084.66 786.62 2197.74 786.62 2254.29 884.55 2197.74 982.49 2084.66 982.49"/><path class="b" d="M2195.8,788.62l55.1,95.43-55.1,95.44H2085.6l-55.1-95.44,55.1-95.43h110.2m2.89-5h-116l-58,100.43,58,100.44h116l58-100.44-58-100.43Z" transform="translate(0.5 0.5)"/><polygon class="c" points="2253.15 881.94 2196.6 784 2253.15 686.07 2366.24 686.07 2422.78 784 2366.24 881.94 2253.15 881.94"/><path class="b" d="M2364.29,688.07l55.1,95.44-55.1,95.43h-110.2L2199,783.51l55.1-95.44h110.2m2.89-5h-116l-58,100.44,58,100.43h116l58-100.43-58-100.44Z" transform="translate(0.5 0.5)"/><path class="b" d="M2532.44,788.51,2555,827.59v112.7l-22.2,38.45-.37.64h-110.2l-55.11-95.44,54.94-95.14.16-.29h110.22m2.88-5h-116l-1.61,2.78-56.38,97.65,57.18,99,.81,1.41h116l1.81-3.14L2560,941.63V826.25l-23.33-40.41-1.35-2.33Z" transform="translate(0.5 0.5)"/><path class="b" d="M179.1,984.94l52.22,90.44H16.69l51.84-89.8.37-.64H179.1m2.89-5H66l-1.81,3.14L8.25,1080l-.22.38H240l-.22-.38-57-98.65-.81-1.41Z" transform="translate(0.5 0.5)"/><path class="b" d="M347.35,884.5l55.11,95.44-1.19,2-53.92,93.39H237.15L183.23,982l-1.19-2,54.74-94.8.37-.64h110.2m2.89-5h-116l-1.81,3.14-56.18,97.3,2.63,4.55L234,1080l.22.38h116l.22-.38,55.14-95.51,2.63-4.55-57.18-99-.81-1.41Z" transform="translate(0.5 0.5)"/><path class="b" d="M515.11,984.94l52.22,90.44H352.7l51.84-89.8.37-.64h110.2m2.89-5H402l-1.81,3.14L344.26,1080l-.22.38H576l-.22-.38-57-98.65-.81-1.41Z" transform="translate(0.5 0.5)"/><path class="b" d="M683.36,884.5l55.11,95.44-1.19,2-53.92,93.39H573.16L519.25,982l-1.19-2,54.73-94.8.37-.64h110.2m2.89-5h-116l-1.81,3.14-56.17,97.3,2.63,4.55L570.05,1080l.22.38h116l.22-.38,55.14-95.51,2.63-4.55-57.18-99-.81-1.41Z" transform="translate(0.5 0.5)"/><path class="b" d="M515.11,984.94l52.22,90.44H352.7l51.84-89.8.37-.64h110.2m2.89-5H402l-1.81,3.14L344.26,1080l-.22.38H576l-.22-.38-57-98.65-.81-1.41Z" transform="translate(0.5 0.5)"/><path class="b" d="M683.36,884.5l55.11,95.44-1.19,2-53.92,93.39H573.16L519.25,982l-1.19-2,54.73-94.8.37-.64h110.2m2.89-5h-116l-1.81,3.14-56.17,97.3,2.63,4.55L570.05,1080l.22.38h116l.22-.38,55.14-95.51,2.63-4.55-57.18-99-.81-1.41Z" transform="translate(0.5 0.5)"/><polygon class="a" points="348.87 1078.38 403.96 982.94 517.05 982.94 572.16 1078.38 348.87 1078.38"/><path class="b" d="M515.11,984.94l52.22,90.44H352.7l51.84-89.8.37-.64h110.2m2.89-5H402l-1.81,3.14L344.26,1080l-.22.38H576l-.22-.38-57-98.65-.81-1.41Z" transform="translate(0.5 0.5)"/><polygon class="c" points="572.21 1078.38 515.68 980.44 572.21 882.5 685.3 882.5 741.85 980.44 685.31 1078.38 572.21 1078.38"/><path class="b" d="M683.36,884.5l55.11,95.44-1.19,2-53.92,93.39H573.16L519.25,982l-1.19-2,54.73-94.8.37-.64h110.2m2.89-5h-116l-1.81,3.14-56.17,97.3,2.63,4.55L570.05,1080l.22.38h116l.22-.38,55.14-95.51,2.63-4.55-57.18-99-.81-1.41Z" transform="translate(0.5 0.5)"/><path class="b" d="M850.89,984.94l52.22,90.44H688.47l51.85-89.8.37-.64h110.2m2.89-5h-116L736,983.08,680,1080l-.22.38h232l-.22-.38-57-98.65-.81-1.41Z" transform="translate(0.5 0.5)"/><path class="b" d="M1019.14,884.5l55.11,95.44-1.12,1.94-54,93.5H908.94L855,982l-1.19-2,54.74-94.8.37-.64h110.2m2.89-5h-116l-1.81,3.14-56.18,97.3,2.63,4.55L905.83,1080l.22.38h116l.22-.38,55.21-95.62,2.56-4.44-.06-.11-57.12-98.92-.81-1.41Z" transform="translate(0.5 0.5)"/><path class="b" d="M850.89,984.94l52.22,90.44H688.47l51.85-89.8.37-.64h110.2m2.89-5h-116L736,983.08,680,1080l-.22.38h232l-.22-.38-57-98.65-.81-1.41Z" transform="translate(0.5 0.5)"/><path class="b" d="M1019.14,884.5l55.11,95.44-1.12,1.94-54,93.5H908.94L855,982l-1.19-2,54.74-94.8.37-.64h110.2m2.89-5h-116l-1.81,3.14-56.18,97.3,2.63,4.55L905.83,1080l.22.38h116l.22-.38,55.21-95.62,2.56-4.44-.06-.11-57.12-98.92-.81-1.41Z" transform="translate(0.5 0.5)"/><polygon class="c" points="684.64 1078.38 739.75 982.94 852.83 982.94 907.94 1078.38 684.64 1078.38"/><path class="b" d="M850.89,984.94l52.22,90.44H688.47l51.85-89.8.37-.64h110.2m2.89-5h-116L736,983.08,680,1080l-.22.38h232l-.22-.38-57-98.65-.81-1.41Z" transform="translate(0.5 0.5)"/><polygon class="c" points="907.99 1078.38 851.45 980.44 908 882.5 1021.08 882.5 1077.63 980.44 1021.09 1078.38 907.99 1078.38"/><path class="b" d="M1019.14,884.5l55.11,95.44-1.12,1.94-54,93.5H908.94L855,982l-1.19-2,54.74-94.8.37-.64h110.2m2.89-5h-116l-1.81,3.14-56.18,97.3,2.63,4.55L905.83,1080l.22.38h116l.22-.38,55.21-95.62,2.56-4.44-.06-.11-57.12-98.92-.81-1.41Z" transform="translate(0.5 0.5)"/><path class="b" d="M1187.28,984.83l52.29,90.55H1024.79l51.92-89.91.37-.64h110.2m2.89-5h-116l-1.81,3.14-56,97-.15.26.07.12h231.82l.07-.12-.15-.26-57-98.76-.81-1.41Z" transform="translate(0.5 0.5)"/><path class="b" d="M1355.53,884.39l55.1,95.44-55.1,95.43h-110.2l-55.1-95.43,55.1-95.44h110.2m2.89-5h-116l-58,100.44,58,100.43h116l58-100.43-58-100.44Z" transform="translate(0.5 0.5)"/><path class="b" d="M1187.28,984.83l52.29,90.55H1024.79l51.92-89.91.37-.64h110.2m2.89-5h-116l-1.81,3.14-56,97-.15.26.07.12h231.82l.07-.12-.15-.26-57-98.76-.81-1.41Z" transform="translate(0.5 0.5)"/><path class="b" d="M1355.53,884.39l55.1,95.44-55.1,95.43h-110.2l-55.1-95.43,55.1-95.44h110.2m2.89-5h-116l-58,100.44,58,100.43h116l58-100.43-58-100.44Z" transform="translate(0.5 0.5)"/><polygon class="c" points="1020.96 1078.38 1076.13 982.83 1189.22 982.83 1244.4 1078.38 1020.96 1078.38"/><path class="b" d="M1187.28,984.83l52.29,90.55H1024.79l51.92-89.91.37-.64h110.2m2.89-5h-116l-1.81,3.14-56,97-.15.26.07.12h231.82l.07-.12-.15-.26-57-98.76-.81-1.41Z" transform="translate(0.5 0.5)"/><polygon class="c" points="1244.38 1078.26 1187.84 980.33 1244.38 882.39 1357.47 882.39 1414.02 980.33 1357.47 1078.26 1244.38 1078.26"/><path class="b" d="M1355.53,884.39l55.1,95.44-55.1,95.43h-110.2l-55.1-95.43,55.1-95.44h110.2m2.89-5h-116l-58,100.44,58,100.43h116l58-100.43-58-100.44Z" transform="translate(0.5 0.5)"/><path class="b" d="M1524.64,984.83l52.29,90.55H1362.16l51.92-89.91.37-.64h110.19m2.89-5h-116l-1.81,3.14-56,97-.15.26.07.12h231.81l.07-.12-.15-.26-57-98.76-.81-1.41Z" transform="translate(0.5 0.5)"/><path class="b" d="M1692.89,884.39,1748,979.83l-55.11,95.43h-110.2l-55.1-95.43,55.1-95.44h110.2m2.89-5h-116l-58,100.44,58,100.43h116l58-100.43-58-100.44Z" transform="translate(0.5 0.5)"/><path class="b" d="M1524.64,984.83l52.29,90.55H1362.16l51.92-89.91.37-.64h110.19m2.89-5h-116l-1.81,3.14-56,97-.15.26.07.12h231.81l.07-.12-.15-.26-57-98.76-.81-1.41Z" transform="translate(0.5 0.5)"/><path class="b" d="M1692.89,884.39,1748,979.83l-55.11,95.43h-110.2l-55.1-95.43,55.1-95.44h110.2m2.89-5h-116l-58,100.44,58,100.43h116l58-100.43-58-100.44Z" transform="translate(0.5 0.5)"/><polygon class="a" points="1358.33 1078.38 1413.51 982.83 1526.58 982.83 1581.76 1078.38 1358.33 1078.38"/><path class="b" d="M1524.64,984.83l52.29,90.55H1362.16l51.92-89.91.37-.64h110.19m2.89-5h-116l-1.81,3.14-56,97-.15.26.07.12h231.81l.07-.12-.15-.26-57-98.76-.81-1.41Z" transform="translate(0.5 0.5)"/><path class="b" d="M1692.89,884.39,1748,979.83l-55.11,95.43h-110.2l-55.1-95.43,55.1-95.44h110.2m2.89-5h-116l-58,100.44,58,100.43h116l58-100.43-58-100.44Z" transform="translate(0.5 0.5)"/><path class="b" d="M1861.12,984.94l52.22,90.44H1698.7l51.85-89.8.37-.64h110.2m2.89-5H1748l-1.81,3.14-56,96.92-.15.26-.07.12h232l-.07-.12-.15-.26-57-98.65-.81-1.41Z" transform="translate(0.5 0.5)"/><polygon class="c" points="1917.91 1078.26 1861.37 980.33 1917.91 882.39 2031 882.39 2087.55 980.33 2031 1078.26 1917.91 1078.26"/><path class="b" d="M2029.06,884.39l55.1,95.44-55.1,95.43h-110.2l-55.11-95.43,55.11-95.44h110.2m2.88-5H1916l-58,100.44,58,100.43h116l58-100.43-58-100.44Z" transform="translate(0.5 0.5)"/><polygon class="a" points="2030.55 1078.38 2085.65 982.94 2198.74 982.94 2253.85 1078.38 2030.55 1078.38"/><path class="b" d="M2196.8,984.94l52.22,90.44H2034.38l51.85-89.8.37-.64h110.2m2.89-5h-116l-1.81,3.14-56,96.92-.15.26-.07.12h232l-.07-.12-.15-.26-57-98.65-.81-1.41Z" transform="translate(0.5 0.5)"/><path class="b" d="M2365.29,884.39l55.1,95.44-55.1,95.43h-110.2L2200,979.83l55.1-95.44h110.2m2.89-5h-116l-58,100.44,58,100.43h116l58-100.43-58-100.44Z" transform="translate(0.5 0.5)"/><path class="b" d="M2533.43,984.83l21.57,37.35v53.2H2370.94l51.92-89.91.37-.64h110.2m2.89-5h-116l-1.81,3.14-56,97-.15.26.07.12H2560v-59.54l-22.87-39.6-.81-1.41Z" transform="translate(0.5 0.5)"/><line class="d" x1="2558.5" y1="0.5" x2="2558.5" y2="1074.83"/><line class="d" x1="2528.85" y1="2.5" x2="2560.5" y2="2.5"/><line class="d" x1="0.5" y1="2.5" x2="58.49" y2="2.5"/><line class="d" x1="2.5" y1="2.5" x2="2.5" y2="1080.5"/><line class="d" x1="4.41" y1="1078.39" x2="12.66" y2="1078.39"/><path class="e" d="M991.36,584.6H984.3v7.59h-7.38v7.06H961.86v7.58h29.5v7.48H939.63V599.25h7.07v-7.06h7.48V584.6h14.75v-7.47h7.58V570H954.7v7.17H939.63V570h7.07v-7.38H984v7.17h7.37Z" transform="translate(0.5 0.5)"/><path class="f" d="M826.19,511.82h-7.07v7.48H781.94v-7.07h-7.48v-7.47h14.85v7.06h22V489.9H774.46V467.57h44.35v7.17h-29.5V482h29.5v7.37h7.38Z" transform="translate(0.5 0.5)"/><path class="g" d="M990.74,811.28H946.39V804H961v-29.6h-7.17v-7.48H961v-7.38h14.86V803.8h14.85Z" transform="translate(0.5 0.5)"/><path class="h" d="M658.28,792.68H650.9v14.85H636.05V793h-29.5V778h7.06v-7.37h7.48v-7.48h7.38V755.8H650.9v29.4h7.38Zm-22.23-7.48V770.66h-7.58V778H621.4v7.17Z" transform="translate(0.5 0.5)"/><path class="i" d="M2503.1,314.7H2496v7.48h-37.19v-7.27h-7.48V285h7.07v-7.37h7.48v-7.17h29.81v7.17h-21.92V285h-7.58v7.27h29.5v7.59h7.37Zm-14.85,0V300.06h-22V314.7Z" transform="translate(0.5 0.5)"/><path class="e" d="M2171.52,888.08h-7.06v7.59h-7.38v7.06H2142v7.58h29.5v7.48h-51.73V902.73h7.06v-7.06h7.48v-7.59h14.75v-7.47h7.59v-7.17h-21.82v7.17h-15.06v-7.17h7.06v-7.38h37.3v7.17h7.37Z" transform="translate(0.5 0.5)"/><path class="j" d="M2340.77,807.32h-7.27v7.48h-37.19v-7.06h-7.48v-7.48h14.65v7.06h22.44V792.88h-22.44V785.4h7.27v-7.79h7.58v-7.06h-22v-7.48h44.46v7.17h-7.27v7.37h-7.58V785H2333v7.48h7.79Z" transform="translate(0.5 0.5)"/><path class="h" d="M2335.39,597.37H2328v14.85h-14.86V597.68h-29.5v-15h7.07v-7.37h7.48v-7.48h7.37v-7.38H2328v29.4h7.37Zm-22.23-7.48V575.35h-7.58v7.37h-7.06v7.17Z" transform="translate(0.5 0.5)"/><path class="e" d="M2171.73,690.33h-7.07v7.59h-7.37V705h-15.06v7.58h29.5V720H2120V705h7.06v-7.06h7.48v-7.59h14.75v-7.48h7.58v-7.16h-21.81v7.16H2120v-7.16h7.06v-7.38h37.29v7.17h7.38Z" transform="translate(0.5 0.5)"/><path class="j" d="M2002.52,807.32h-7.27v7.48h-37.19v-7.06h-7.48v-7.48h14.65v7.06h22.44V792.88h-22.44V785.4h7.27v-7.79h7.58v-7.06h-22v-7.48h44.46v7.17h-7.27v7.37h-7.58V785h7.06v7.48h7.79Z" transform="translate(0.5 0.5)"/><path class="j" d="M2002.73,1015.88h-7.27v7.47h-37.19v-7.06h-7.48v-7.48h14.65v7.07h22.44v-14.44h-22.44V994h7.27v-7.79h7.58V979.1h-22v-7.48h44.46v7.17h-7.27v7.38h-7.58v7.37h7.06V1001h7.79Z" transform="translate(0.5 0.5)"/><path class="e" d="M658.49,986.9h-7.07v7.58h-7.37v7.06H629v7.58h29.5v7.48H606.76v-15.06h7.06v-7.06h7.48V986.9h14.75v-7.48h7.58v-7.17H621.82v7.17H606.76v-7.17h7.06v-7.38h37.29V972h7.38Z" transform="translate(0.5 0.5)"/><path class="g" d="M820.82,911.21H776.47v-7.28h14.65v-29.6H784v-7.48h7.17v-7.37H806v44.25h14.85Z" transform="translate(0.5 0.5)"/><path class="j" d="M1322.12,803.8h-7.27v7.48h-37.18v-7.06h-7.48v-7.48h14.64v7.06h22.44V789.36h-22.44v-7.48h7.27v-7.79h7.59V767h-22v-7.48h44.45v7.17h-7.27v7.37h-7.58v7.38h7.06V789h7.79Z" transform="translate(0.5 0.5)"/><path class="g" d="M1158.21,720h-44.35v-7.27h14.64v-29.6h-7.16v-7.48h7.16v-7.38h14.86v44.25h14.85Z" transform="translate(0.5 0.5)"/><path class="h" d="M1159.23,504.44h-7.38V519.3H1137V504.76h-29.5v-15h7.06v-7.38H1122v-7.48h7.38v-7.37h22.43V497h7.38ZM1137,497V482.42h-7.58v7.38h-7.07V497Z" transform="translate(0.5 0.5)"/><path class="e" d="M1331.94,986.89h-7.07v7.59h-7.37v7.06h-15.06v7.58h29.5v7.48h-51.73v-15.06h7.06v-7.06h7.48v-7.59h14.75v-7.47h7.58v-7.17h-21.81v7.17h-15.06v-7.17h7.06v-7.38h37.29V972h7.38Z" transform="translate(0.5 0.5)"/><rect class="k" x="0.5" y="0.5" width="2560" height="1080"/></svg>