<svg
    xmlns="http://www.w3.org/2000/svg"
    viewBox="0 0 842 862"
    id="vector">
    <path
        id="path"
        d="M 422 0.02 C 427.49 16.21 434.39 31.84 440.71 47.71 Q 459.22 94.23 477.89 140.71 C 480.14 146.32 478.89 151.96 477.58 157.41 C 471.3 184.41 446.33 203.05 418.34 201.79 C 391.34 200.58 367.93 179.33 364.21 152.44 C 363.446 148.019 363.903 143.471 365.53 139.29 Q 393.46 70.29 420.94 1.01 C 421.014 0.682 421.034 0.344 421 0.01 Z M 421.55 11.44 C 420.66 13.32 420.04 14.44 419.55 15.7 C 403.37 56.11 387.32 96.57 370.92 136.9 C 368.285 143.185 367.748 150.156 369.39 156.77 C 374.55 179.39 394.88 196.19 419 197.52 C 442 198.79 464.58 183.93 471.66 162.31 C 473.98 155.21 476.35 148.03 473.1 140.04 C 458.1 103.26 443.58 66.31 428.87 29.43 C 426.57 23.62 424.17 17.85 421.56 11.44 Z"
        fill="#ffffff"/>
    <path
        id="path_1"
        d="M 842.9 435.92 Q 809.38 449.26 775.83 462.58 Q 738.56 477.46 701.32 492.42 C 697.51 493.95 693.7 493.23 689.99 492.64 C 666.42 488.87 647.11 470.86 642.44 448.53 C 637.32 424 646.91 400.31 667.62 386.94 C 675.786 381.705 685.15 378.631 694.83 378.01 C 698.15 377.77 701.07 378.8 703.99 380.01 Q 739.37 394.2 774.76 408.44 Q 806.44 421.18 838.16 433.82 C 839.64 434.4 841.16 435.41 842.9 434.96 Z M 831.57 435.7 C 789.71 418.85 749 402.42 708.28 386.21 C 704.18 384.58 700.28 381.75 695.59 382.13 C 678.59 383.55 664.39 390.79 654.86 405.08 C 632.51 438.54 650.86 481.26 690.42 488.54 C 693.99 489.2 697.57 489.48 701.2 488.01 Q 749.72 468.4 798.33 449.01 C 809.09 444.66 819.86 440.37 831.57 435.69 Z"
        fill="#ffffff"/>
    <path
        id="path_2"
        d="M 158.68 166.71 C 163.3 168.71 167.98 170.71 172.62 172.71 C 188.75 179.81 204.93 186.8 220.94 194.16 C 224.86 195.96 227.32 195.44 230.63 192.79 C 266.78 163.85 307.38 143.99 352.63 133.79 L 354.63 133.35 C 349 155.42 358.64 180.92 377.91 195.47 C 407.45 217.75 444.86 215.38 470.91 189.07 C 482.79 177.07 488.75 162.07 490.07 145.15 C 490.4 140.9 488.21 137.5 486.92 133.24 C 498.46 134.9 509.15 138.38 519.74 142 C 553.889 153.47 585.675 171.042 613.55 193.86 C 616.22 196.05 618.37 195.86 621.21 194.6 Q 651.41 181.49 681.67 168.6 C 683.18 167.95 684.67 167.33 686.79 166.45 C 686.09 170.73 684.25 174.03 682.79 177.45 Q 670.79 205.68 658.58 233.81 C 657.58 236.2 658.02 237.65 659.58 239.58 C 672.9 256.218 684.521 274.148 694.27 293.1 C 706.972 317.992 716.185 344.514 721.65 371.92 C 721.712 372.625 721.712 373.335 721.65 374.04 C 717.86 373.91 714.65 372.34 711.73 370.73 C 701.16 364.89 690.49 366.31 679.84 369.89 C 632.13 385.89 616.47 443.89 649.84 481.62 C 662.67 496.16 679.32 503.62 698.63 504.62 C 704.41 504.93 709.24 501.07 714.63 499.42 C 716.49 498.85 718.25 497.96 720.8 496.91 C 718.12 508.45 715.32 519.16 711.8 529.67 C 700.036 564.606 682.053 597.13 658.72 625.67 C 657.2 627.53 656.65 628.97 657.72 631.43 C 666.16 650.78 674.4 670.22 682.72 689.61 C 683.61 691.66 684.85 693.61 686.28 696.18 C 675.68 691.65 665.66 687.4 655.66 683.1 C 644.2 678.18 632.66 673.32 621.34 668.21 C 618 666.72 615.71 667.21 612.87 669.49 C 577.39 698.2 537.33 717.69 493.01 728.49 C 491.6 728.83 490.13 729.34 489.2 728.99 C 494.2 702.71 483.89 682.4 464.2 666.92 C 435.54 644.43 397.14 647.73 371.83 673.92 C 360.5 685.53 354.7 699.84 353 715.92 C 352.5 720.64 354.24 724.68 356.27 729.63 C 352.34 728.84 349 728.33 345.76 727.48 C 302.89 716.12 263.86 697.09 229.51 668.86 C 226.37 666.28 223.91 667.19 220.91 668.49 Q 190.48 681.7 160 694.75 C 158.94 695.2 157.85 695.58 156.27 696.19 C 156.78 692.37 158.43 689.37 159.75 686.28 C 167.92 667.17 176.07 648.05 184.35 628.99 C 185.35 626.65 185.03 625.19 183.46 623.23 C 163.233 598.211 147.062 570.168 135.54 540.13 C 129.06 523.414 124.168 506.124 120.93 488.49 C 124.758 488.923 128.449 490.174 131.75 492.16 C 141.3 497.54 151.03 496.41 160.75 493.53 C 210.06 479.02 227.22 418.74 192.75 380.64 C 180.15 366.71 164.01 359.34 145.25 358.1 C 138.67 357.66 133.34 361.87 127.36 363.71 C 126 364.12 124.55 365.71 123.26 364.56 C 121.97 363.41 123.09 361.73 123.42 360.34 C 134.35 314.81 154.35 273.74 184.02 237.46 C 186.02 235.04 186.16 233.17 184.92 230.35 C 176.2 210.4 167.65 190.35 159.08 170.35 C 158.67 169.37 157.65 168.42 158.68 166.71 Z M 177.3 179.71 L 176.38 179.3 L 176.97 180.03 C 179.59 183.03 182.13 186.03 184.86 188.92 C 205.34 210.55 226.45 231.56 247.55 252.59 Q 297.05 301.94 346.28 351.59 C 348.63 353.96 349.55 353.18 350.87 350.76 C 353.87 345.21 357.24 339.84 360.2 334.26 C 361.55 331.69 363.25 330.91 366.1 330.91 Q 420.82 331.06 475.56 330.91 C 478.65 330.91 480.29 331.91 481.8 334.53 Q 509.25 382.36 537 430.02 C 538.56 432.7 537.87 434.51 536.53 436.81 C 524.42 457.67 512.47 478.62 500.26 499.42 C 498.49 502.42 498.69 504.04 501.17 506.51 Q 568.43 573.51 635.5 640.74 L 670.57 675.8 C 671.75 673.3 670.37 671.6 669.65 669.88 C 664.35 657.32 659.22 644.68 653.51 632.31 C 651.77 628.54 652.61 626.38 654.93 623.57 C 678.461 594.982 696.511 562.293 708.17 527.15 C 710.68 519.68 712.67 512.03 715.03 504.04 C 709.03 505.48 704.44 509.04 698.66 508.78 C 676.28 507.61 657.73 498.5 643.87 481.02 C 613.87 443.21 627.95 387.31 672.29 368.42 C 685.35 362.85 699.09 358.82 712.98 366.85 C 714.018 367.269 715.103 367.564 716.21 367.73 C 714.65 356.35 711.21 345.94 707.69 335.62 C 696.224 301.47 678.648 269.686 655.82 241.82 C 653.29 238.74 652.82 236.25 654.52 232.52 C 661.88 215.96 668.92 199.26 676.02 182.59 C 677.02 180.13 678.71 177.81 678.62 174.59 C 676.81 175.3 675.41 175.8 674.05 176.39 Q 646.77 188.07 619.52 199.82 C 617.37 200.75 615.82 201.1 613.73 199.34 C 587.36 177.18 557.73 160.51 525.56 148.48 C 515.4 144.68 505.11 141.07 494.25 139.18 C 494.56 183.06 460.57 213.73 423.07 214.69 C 403.37 215.2 386.07 208.75 371.57 195.42 C 355.34 180.42 347.5 161.6 347.8 139.07 C 304.779 149.911 264.688 170.143 230.41 198.31 C 227.68 200.55 225.8 200.81 222.59 199.36 C 207.56 192.63 192.4 186.25 177.3 179.75 Z M 421.94 527.11 C 439.43 527.11 456.94 527.11 474.43 527.11 C 476.87 527.11 478.71 526.89 480.19 524.37 C 485.3 515.66 490.57 507.03 495.86 498.43 C 508.41 478.04 519.94 457.02 532.03 436.34 C 533.51 433.81 533.35 431.97 531.94 429.56 Q 505.46 384.05 479.2 338.42 C 477.98 336.3 476.76 335.23 474.2 335.23 Q 420.96 335.34 367.73 335.23 C 365.79 335.23 364.28 335.51 363.14 337.44 C 357.77 346.58 352.26 355.63 346.71 364.67 C 334.62 384.37 323.55 404.67 311.81 424.6 C 309.66 428.24 309.66 430.75 311.81 434.43 Q 337.81 478.78 363.22 523.43 C 364.76 526.12 366.38 527.12 369.43 527.1 C 387 527.09 404.44 527.15 421.94 527.15 Z"
        fill="#ffffff"/>
    <path
        id="path_3"
        d="M 421.42 862.52 C 418.64 855.73 416.11 849.66 413.67 843.52 C 397.38 802.82 381.01 762.14 364.91 721.36 C 361.91 713.78 364.67 706.17 367.3 699.03 C 381.3 660.97 427.62 648.49 458.76 674.49 C 470.3 684.13 476.97 696.78 478.76 711.82 C 479.265 715.947 478.685 720.135 477.08 723.97 Q 450.31 790.54 423.77 857.21 C 423.2 858.77 422.45 860.24 421.42 862.52 Z"
        fill="#ffffff"/>
    <path
        id="path_4"
        d="M 0 427.09 C 14.17 421.37 27.07 416.09 40 410.97 C 73 397.77 106.12 384.74 139 371.31 C 144.36 369.12 149.4 369.37 154.59 370.42 C 178.25 375.2 196.34 392.98 200.67 415.42 C 205.29 439.35 195.92 461.85 175.35 475.6 C 166.73 481.36 157.02 484.11 146.68 484.71 C 143.68 484.88 141.15 483.59 138.56 482.55 Q 88.17 462.42 37.76 442.12 C 25.59 437.24 13.39 432.41 0 427.09 Z"
        fill="#ffffff"/>
    <path
        id="path_5"
        d="M 177 180.07 L 176.41 179.34 L 177.33 179.75 Z"
        fill="#ffffff"/>
    <path
        id="path_6"
        d="M 421 355 C 434.65 355 448.31 355.08 462 354.93 C 464.86 354.93 466.38 355.8 467.82 358.32 Q 488 393.6 508.5 428.68 C 510.31 431.77 510.43 434.22 508.59 437.34 C 498.96 453.66 489.8 470.27 479.84 486.39 C 476.02 492.57 472.14 498.74 468.44 505 C 468.003 505.878 467.308 506.601 466.448 507.073 C 465.589 507.545 464.605 507.743 463.63 507.64 Q 421.92 507.56 380.2 507.64 C 379.229 507.738 378.25 507.533 377.4 507.054 C 376.549 506.574 375.868 505.842 375.45 504.96 Q 355.13 469.47 334.51 434.14 C 332.62 430.9 332.56 428.33 334.51 425.06 C 344.15 408.74 353.24 392.06 363.26 376.01 C 367.19 369.7 371.09 363.36 374.89 357.01 C 376.28 354.68 378.11 355.06 380.02 355.01 Q 400.47 354.98 421 355 Z M 477.4 482.85 C 486.74 466.62 495.62 451.03 504.71 435.57 C 506 433.39 505.46 432.02 504.41 430.19 Q 484.82 396.29 465.41 362.32 C 463.9 359.67 461.9 359.32 459.24 359.32 C 436.42 359.38 413.59 359.89 390.81 359.1 C 381.4 358.78 375.81 361.32 371.94 369.99 C 370.18 373.99 370.52 375.87 373.41 378.73 Q 411.52 416.53 449.41 454.58 C 458.58 463.84 467.78 473.19 477.37 482.85 Z"
        fill="#ffffff"/>
</svg>
